<svg version="1.0" xmlns="http://www.w3.org/2000/svg"
 width="500.000000pt" height="500.000000pt" viewBox="0 0 500.000000 500.000000"
 preserveAspectRatio="xMidYMid meet">

<g transform="translate(0.000000,500.000000) scale(0.100000,-0.100000)"
fill="#000000" stroke="none">
<path d="M0 2500 l0 -2500 2500 0 2500 0 0 2500 0 2500 -2500 0 -2500 0 0
-2500z m3287 1145 c133 -25 296 -89 318 -125 3 -5 -28 -77 -69 -159 l-76 -150
-42 24 c-77 42 -185 69 -278 69 -220 0 -378 -92 -466 -269 -39 -78 -39 -80
-39 -194 0 -111 2 -119 32 -182 18 -37 54 -90 79 -118 98 -109 193 -151 359
-158 124 -6 202 9 289 55 28 15 54 28 58 30 4 2 27 -37 52 -86 l45 -90 -50 19
c-73 28 -142 25 -214 -10 -97 -45 -144 -114 -153 -219 l-5 -65 -91 7 c-50 3
-107 11 -126 16 -19 6 -144 10 -277 10 l-242 0 -288 332 -288 331 -3 -331 -2
-332 -180 0 -180 0 0 549 0 549 44 6 c77 12 182 70 252 140 l64 64 2 -182 3
-181 265 317 265 317 217 0 c189 1 217 -1 212 -14 -8 -19 -6 -19 47 1 125 45
319 57 466 29z m180 -1495 c59 -36 65 -125 11 -177 -24 -23 -38 -28 -79 -28
-44 0 -54 4 -80 33 -23 26 -29 42 -29 78 0 39 5 51 34 80 40 40 92 46 143 14z
m-2497 -307 l0 -37 38 37 c48 47 78 50 33 3 l-34 -35 32 -38 c19 -23 27 -39
20 -42 -7 -2 -24 11 -39 29 -29 36 -50 34 -50 -6 0 -15 -6 -24 -15 -24 -12 0
-15 15 -15 75 0 60 3 75 15 75 11 0 15 -11 15 -37z m258 -38 c21 -51 27 -75
18 -75 -7 0 -18 12 -24 26 -15 32 -62 31 -77 -3 -5 -13 -15 -23 -22 -23 -9 0
-8 13 6 48 33 82 44 102 56 102 7 0 26 -34 43 -75z m115 17 c11 -29 22 -52 26
-52 3 0 15 23 26 52 20 52 55 84 40 37 -18 -58 -55 -129 -67 -129 -7 0 -25 31
-40 68 -31 76 -33 85 -16 80 6 -2 20 -27 31 -56z m192 -17 c0 -68 -2 -75 -20
-75 -18 0 -20 7 -20 75 0 68 2 75 20 75 18 0 20 -7 20 -75z m123 23 l37 -53 3
53 c2 37 7 52 18 52 11 0 14 -16 14 -75 0 -94 -13 -97 -69 -18 l-41 58 0 -58
c0 -31 -4 -57 -10 -57 -6 0 -10 32 -10 75 0 43 4 75 10 75 6 0 27 -24 48 -52z
m222 30 c26 -28 26 -82 0 -108 -13 -13 -33 -20 -60 -20 l-40 0 0 75 0 75 40 0
c27 0 45 -6 60 -22z m98 -42 c2 -39 8 -59 18 -63 27 -10 44 17 44 73 0 30 5
54 10 54 6 0 10 -26 10 -59 0 -65 -15 -91 -52 -91 -41 0 -58 28 -58 92 0 80
24 75 28 -6z m330 46 c3 -9 -3 -11 -21 -7 -39 10 -67 -10 -67 -48 0 -18 5 -38
12 -45 15 -15 54 -16 63 -2 4 6 11 8 16 4 17 -10 -12 -34 -41 -34 -69 0 -103
89 -50 132 26 21 81 21 88 0z m82 -12 c0 -28 2 -30 40 -30 38 0 40 2 40 30 0
20 5 30 15 30 12 0 15 -15 15 -75 0 -60 -3 -75 -15 -75 -10 0 -15 11 -15 35 0
34 -1 35 -40 35 -39 0 -40 -1 -40 -35 0 -19 -4 -35 -10 -35 -6 0 -10 32 -10
75 0 43 4 75 10 75 6 0 10 -13 10 -30z m271 -45 c34 -81 33 -75 15 -75 -8 0
-17 11 -20 25 -5 20 -13 25 -36 25 -23 0 -33 -6 -42 -25 -6 -14 -17 -25 -24
-25 -9 0 -3 24 19 75 19 48 36 75 45 73 7 -2 26 -34 43 -73z m169 65 c0 -5 -9
-10 -20 -10 -18 0 -20 -7 -20 -65 0 -51 -3 -65 -15 -65 -12 0 -15 14 -15 65 0
58 -2 65 -20 65 -11 0 -20 5 -20 10 0 6 25 10 55 10 30 0 55 -4 55 -10z m60
-20 c0 -29 2 -30 45 -30 43 0 45 1 45 30 0 17 5 30 10 30 6 0 10 -32 10 -75 0
-43 -4 -75 -10 -75 -5 0 -10 16 -10 36 l0 35 -42 -3 c-40 -3 -43 -5 -46 -35
-6 -63 -22 -32 -22 42 0 43 4 75 10 75 6 0 10 -13 10 -30z m192 -32 c3 -60 4
-63 28 -63 24 0 25 3 28 63 4 82 22 80 22 -2 0 -71 -12 -89 -57 -84 -35 4 -53
37 -53 101 0 34 4 47 15 47 10 0 15 -16 17 -62z m228 47 c14 -17 6 -65 -11
-65 -6 0 1 -16 15 -35 20 -26 23 -35 12 -35 -8 0 -24 14 -36 30 -12 17 -28 30
-36 30 -9 0 -14 -11 -14 -30 0 -16 -4 -30 -10 -30 -6 0 -10 32 -10 75 l0 75
39 0 c22 0 44 -6 51 -15z m181 -60 c34 -81 33 -75 15 -75 -8 0 -17 11 -20 25
-5 20 -13 25 -36 25 -23 0 -33 -6 -42 -25 -6 -14 -17 -25 -24 -25 -9 0 -3 24
19 75 19 48 36 75 45 73 7 -2 26 -34 43 -73z m137 23 l37 -53 3 53 c2 37 7 52
18 52 11 0 14 -16 14 -75 0 -94 -13 -97 -69 -18 l-41 58 0 -58 c0 -31 -4 -57
-10 -57 -6 0 -10 32 -10 75 0 43 4 75 10 75 6 0 27 -24 48 -52z m216 46 c29
-11 17 -23 -17 -17 -38 6 -59 -13 -59 -52 0 -33 19 -55 49 -55 25 0 45 31 25
38 -19 6 -14 22 8 22 15 0 20 -7 20 -28 0 -37 -17 -52 -56 -52 -38 0 -74 38
-74 77 0 47 58 85 104 67z m180 -48 c13 -30 27 -63 31 -75 9 -30 -13 -27 -27
4 -8 18 -19 25 -40 25 -21 0 -31 -6 -38 -25 -9 -22 -30 -35 -30 -18 0 22 57
143 68 143 7 0 23 -24 36 -54z"/>
<path d="M2202 2941 c-23 -27 -42 -52 -42 -56 0 -3 15 -24 33 -47 l32 -40 11
93 c6 52 10 95 9 97 -1 1 -21 -20 -43 -47z"/>
<path d="M1177 1833 c-12 -12 -7 -33 8 -33 17 0 19 9 7 28 -5 7 -11 9 -15 5z"/>
<path d="M1800 1804 c0 -54 0 -55 27 -52 17 2 33 13 42 29 13 24 13 29 -2 53
-11 16 -27 26 -42 26 -24 0 -25 -3 -25 -56z"/>
<path d="M2606 1824 c-9 -22 -8 -24 9 -24 8 0 15 6 15 14 0 22 -17 28 -24 10z"/>
<path d="M3240 1840 c0 -17 5 -21 28 -18 16 2 27 9 27 18 0 9 -11 16 -27 18
-23 3 -28 -1 -28 -18z"/>
<path d="M3436 1824 c-9 -22 -8 -24 9 -24 8 0 15 6 15 14 0 22 -17 28 -24 10z"/>
<path d="M3976 1825 c-8 -22 -3 -28 19 -23 14 3 14 5 2 22 -13 18 -14 18 -21
1z"/>
</g>
</svg>
